<mxfile host="Electron" agent="Mozilla/5.0 (X11; Linux x86_64) AppleWebKit/537.36 (KHTML, like Gecko) draw.io/26.2.15 Chrome/134.0.6998.205 Electron/35.4.0 Safari/537.36" version="26.2.15">
  <diagram id="C5RBs43oDa-KdzZeNtuy" name="Page-1">
    <mxGraphModel dx="1661" dy="889" grid="1" gridSize="10" guides="1" tooltips="1" connect="1" arrows="1" fold="1" page="1" pageScale="1" pageWidth="827" pageHeight="1169" math="0" shadow="0">
      <root>
        <mxCell id="WIyWlLk6GJQsqaUBKTNV-0" />
        <mxCell id="WIyWlLk6GJQsqaUBKTNV-1" parent="WIyWlLk6GJQsqaUBKTNV-0" />
        <mxCell id="jyDG9MxLNxctg-NhNLhG-4" value="RealTimeClock" style="swimlane;fontStyle=1;align=center;verticalAlign=top;childLayout=stackLayout;horizontal=1;startSize=26;horizontalStack=0;resizeParent=1;resizeParentMax=0;resizeLast=0;collapsible=1;marginBottom=0;whiteSpace=wrap;html=1;" parent="WIyWlLk6GJQsqaUBKTNV-1" vertex="1">
          <mxGeometry x="390" y="220" width="230" height="220" as="geometry" />
        </mxCell>
        <mxCell id="jyDG9MxLNxctg-NhNLhG-5" value="- rtc: Rtc" style="text;strokeColor=none;fillColor=none;align=left;verticalAlign=top;spacingLeft=4;spacingRight=4;overflow=hidden;rotatable=0;points=[[0,0.5],[1,0.5]];portConstraint=eastwest;whiteSpace=wrap;html=1;" parent="jyDG9MxLNxctg-NhNLhG-4" vertex="1">
          <mxGeometry y="26" width="230" height="26" as="geometry" />
        </mxCell>
        <mxCell id="jyDG9MxLNxctg-NhNLhG-6" value="" style="line;strokeWidth=1;fillColor=none;align=left;verticalAlign=middle;spacingTop=-1;spacingLeft=3;spacingRight=3;rotatable=0;labelPosition=right;points=[];portConstraint=eastwest;strokeColor=inherit;" parent="jyDG9MxLNxctg-NhNLhG-4" vertex="1">
          <mxGeometry y="52" width="230" height="8" as="geometry" />
        </mxCell>
        <mxCell id="jyDG9MxLNxctg-NhNLhG-7" value="&lt;div&gt;- wait_for_flag()&lt;/div&gt;&lt;div&gt;&lt;br&gt;&lt;/div&gt;&lt;div&gt;+ new(rtc: Rtc, clk_src: RtcClkSrc): Self&lt;/div&gt;&lt;div&gt;+ set_time(time: Time)&lt;/div&gt;&lt;div&gt;+ set_date(date: Date)&lt;/div&gt;&lt;div&gt;+ enable(): RealTimeClock&amp;lt;true&amp;gt;&lt;/div&gt;&lt;div&gt;&lt;br&gt;&lt;/div&gt;&lt;div&gt;+ get_time(): Time&lt;/div&gt;&lt;div&gt;+ get_date(): Date&lt;/div&gt;&lt;div&gt;+ disable(): RealTimeClock&amp;lt;false&amp;gt;&lt;/div&gt;" style="text;strokeColor=none;fillColor=none;align=left;verticalAlign=top;spacingLeft=4;spacingRight=4;overflow=hidden;rotatable=0;points=[[0,0.5],[1,0.5]];portConstraint=eastwest;whiteSpace=wrap;html=1;" parent="jyDG9MxLNxctg-NhNLhG-4" vertex="1">
          <mxGeometry y="60" width="230" height="160" as="geometry" />
        </mxCell>
        <mxCell id="w37hOqTbizMi6zPDs-Ez-0" value="Time" style="swimlane;fontStyle=1;align=center;verticalAlign=top;childLayout=stackLayout;horizontal=1;startSize=26;horizontalStack=0;resizeParent=1;resizeParentMax=0;resizeLast=0;collapsible=1;marginBottom=0;whiteSpace=wrap;html=1;" vertex="1" parent="WIyWlLk6GJQsqaUBKTNV-1">
          <mxGeometry x="120" y="150" width="210" height="158" as="geometry" />
        </mxCell>
        <mxCell id="w37hOqTbizMi6zPDs-Ez-1" value="+ dow: DayOfWeek&lt;div&gt;+ hours: u8&lt;/div&gt;&lt;div&gt;+ minutes: u8&lt;/div&gt;&lt;div&gt;+ seconds: u8&lt;/div&gt;" style="text;strokeColor=none;fillColor=none;align=left;verticalAlign=top;spacingLeft=4;spacingRight=4;overflow=hidden;rotatable=0;points=[[0,0.5],[1,0.5]];portConstraint=eastwest;whiteSpace=wrap;html=1;" vertex="1" parent="w37hOqTbizMi6zPDs-Ez-0">
          <mxGeometry y="26" width="210" height="74" as="geometry" />
        </mxCell>
        <mxCell id="w37hOqTbizMi6zPDs-Ez-2" value="" style="line;strokeWidth=1;fillColor=none;align=left;verticalAlign=middle;spacingTop=-1;spacingLeft=3;spacingRight=3;rotatable=0;labelPosition=right;points=[];portConstraint=eastwest;strokeColor=inherit;" vertex="1" parent="w37hOqTbizMi6zPDs-Ez-0">
          <mxGeometry y="100" width="210" height="8" as="geometry" />
        </mxCell>
        <mxCell id="w37hOqTbizMi6zPDs-Ez-3" value="&lt;div&gt;+ new(dow: DayOfWeek, hours: u8, minutes: u8, seconds: u8): Self&lt;/div&gt;" style="text;strokeColor=none;fillColor=none;align=left;verticalAlign=top;spacingLeft=4;spacingRight=4;overflow=hidden;rotatable=0;points=[[0,0.5],[1,0.5]];portConstraint=eastwest;whiteSpace=wrap;html=1;" vertex="1" parent="w37hOqTbizMi6zPDs-Ez-0">
          <mxGeometry y="108" width="210" height="50" as="geometry" />
        </mxCell>
        <mxCell id="w37hOqTbizMi6zPDs-Ez-4" value="Date" style="swimlane;fontStyle=1;align=center;verticalAlign=top;childLayout=stackLayout;horizontal=1;startSize=26;horizontalStack=0;resizeParent=1;resizeParentMax=0;resizeLast=0;collapsible=1;marginBottom=0;whiteSpace=wrap;html=1;" vertex="1" parent="WIyWlLk6GJQsqaUBKTNV-1">
          <mxGeometry x="120" y="380" width="210" height="158" as="geometry" />
        </mxCell>
        <mxCell id="w37hOqTbizMi6zPDs-Ez-5" value="+ centuries: u8&lt;div&gt;+ years: u8&lt;/div&gt;&lt;div&gt;+ months: u8&lt;/div&gt;&lt;div&gt;+ days: u8&lt;/div&gt;" style="text;strokeColor=none;fillColor=none;align=left;verticalAlign=top;spacingLeft=4;spacingRight=4;overflow=hidden;rotatable=0;points=[[0,0.5],[1,0.5]];portConstraint=eastwest;whiteSpace=wrap;html=1;" vertex="1" parent="w37hOqTbizMi6zPDs-Ez-4">
          <mxGeometry y="26" width="210" height="74" as="geometry" />
        </mxCell>
        <mxCell id="w37hOqTbizMi6zPDs-Ez-6" value="" style="line;strokeWidth=1;fillColor=none;align=left;verticalAlign=middle;spacingTop=-1;spacingLeft=3;spacingRight=3;rotatable=0;labelPosition=right;points=[];portConstraint=eastwest;strokeColor=inherit;" vertex="1" parent="w37hOqTbizMi6zPDs-Ez-4">
          <mxGeometry y="100" width="210" height="8" as="geometry" />
        </mxCell>
        <mxCell id="w37hOqTbizMi6zPDs-Ez-7" value="&lt;div&gt;+ new(centuries: u8, years: u8, months: u8, days: u8): Self&lt;/div&gt;" style="text;strokeColor=none;fillColor=none;align=left;verticalAlign=top;spacingLeft=4;spacingRight=4;overflow=hidden;rotatable=0;points=[[0,0.5],[1,0.5]];portConstraint=eastwest;whiteSpace=wrap;html=1;" vertex="1" parent="w37hOqTbizMi6zPDs-Ez-4">
          <mxGeometry y="108" width="210" height="50" as="geometry" />
        </mxCell>
      </root>
    </mxGraphModel>
  </diagram>
</mxfile>
